<mxfile host="Electron" agent="Mozilla/5.0 (Windows NT 10.0; Win64; x64) AppleWebKit/537.36 (KHTML, like Gecko) draw.io/26.0.9 Chrome/128.0.6613.186 Electron/32.2.5 Safari/537.36" version="26.0.9">
  <diagram name="Seite-1" id="BN6opd7grR0zZ6WSBk_W">
    <mxGraphModel dx="1235" dy="1900" grid="1" gridSize="10" guides="1" tooltips="1" connect="1" arrows="1" fold="1" page="1" pageScale="1" pageWidth="827" pageHeight="1169" math="0" shadow="0">
      <root>
        <mxCell id="0" />
        <mxCell id="1" parent="0" />
        <mxCell id="8ZE7OZUxNNbx8h2_Nqw3-10" value="Tag anzeigen lassen" style="ellipse;whiteSpace=wrap;html=1;align=center;" parent="1" vertex="1">
          <mxGeometry x="292.75" y="40" width="88.5" height="55" as="geometry" />
        </mxCell>
        <mxCell id="8ZE7OZUxNNbx8h2_Nqw3-12" value="Woche anzeigen" style="ellipse;whiteSpace=wrap;html=1;align=center;" parent="1" vertex="1">
          <mxGeometry x="291" y="100" width="86" height="60" as="geometry" />
        </mxCell>
        <mxCell id="8ZE7OZUxNNbx8h2_Nqw3-13" value="Termin hinzufügen" style="ellipse;whiteSpace=wrap;html=1;align=center;strokeWidth=1;fontSize=10;" parent="1" vertex="1">
          <mxGeometry x="287" y="410" width="90" height="50" as="geometry" />
        </mxCell>
        <mxCell id="8ZE7OZUxNNbx8h2_Nqw3-14" value="Termin bearbeiten" style="ellipse;whiteSpace=wrap;html=1;align=center;strokeWidth=1;fontSize=10;" parent="1" vertex="1">
          <mxGeometry x="287" y="290" width="90" height="50" as="geometry" />
        </mxCell>
        <mxCell id="8ZE7OZUxNNbx8h2_Nqw3-15" value="Ansicht auswählen/ändern" style="ellipse;whiteSpace=wrap;html=1;align=center;" parent="1" vertex="1">
          <mxGeometry x="140" y="60" width="90" height="70" as="geometry" />
        </mxCell>
        <mxCell id="8ZE7OZUxNNbx8h2_Nqw3-16" value="Monat Anzeigen lassen" style="ellipse;whiteSpace=wrap;html=1;align=center;" parent="1" vertex="1">
          <mxGeometry x="291" y="170" width="86" height="60" as="geometry" />
        </mxCell>
        <mxCell id="8ZE7OZUxNNbx8h2_Nqw3-17" value="Termin löschen" style="ellipse;whiteSpace=wrap;html=1;align=center;strokeWidth=1;fontSize=10;" parent="1" vertex="1">
          <mxGeometry x="287" y="240" width="83" height="40" as="geometry" />
        </mxCell>
        <mxCell id="8ZE7OZUxNNbx8h2_Nqw3-18" value="Termin Erinnerung erstellen" style="ellipse;whiteSpace=wrap;html=1;align=center;strokeWidth=1;fontSize=10;" parent="1" vertex="1">
          <mxGeometry x="272" y="470" width="120" height="60" as="geometry" />
        </mxCell>
        <mxCell id="8ZE7OZUxNNbx8h2_Nqw3-21" value="User" style="shape=umlActor;verticalLabelPosition=bottom;verticalAlign=top;html=1;fontSize=12;" parent="1" vertex="1">
          <mxGeometry x="40" y="250" width="30" height="60" as="geometry" />
        </mxCell>
        <mxCell id="8ZE7OZUxNNbx8h2_Nqw3-25" value="" style="endArrow=none;html=1;rounded=0;" parent="1" edge="1">
          <mxGeometry width="50" height="50" relative="1" as="geometry">
            <mxPoint x="120" y="540" as="sourcePoint" />
            <mxPoint x="120" y="40" as="targetPoint" />
          </mxGeometry>
        </mxCell>
        <mxCell id="8ZE7OZUxNNbx8h2_Nqw3-26" value="" style="endArrow=none;html=1;rounded=0;" parent="1" edge="1">
          <mxGeometry width="50" height="50" relative="1" as="geometry">
            <mxPoint x="120" y="540" as="sourcePoint" />
            <mxPoint x="490" y="540" as="targetPoint" />
          </mxGeometry>
        </mxCell>
        <mxCell id="8ZE7OZUxNNbx8h2_Nqw3-27" value="" style="endArrow=none;html=1;rounded=0;" parent="1" edge="1">
          <mxGeometry width="50" height="50" relative="1" as="geometry">
            <mxPoint x="490" y="40" as="sourcePoint" />
            <mxPoint x="490" y="540" as="targetPoint" />
            <Array as="points">
              <mxPoint x="490" y="280" />
            </Array>
          </mxGeometry>
        </mxCell>
        <mxCell id="8ZE7OZUxNNbx8h2_Nqw3-28" value="" style="endArrow=none;html=1;rounded=0;" parent="1" edge="1">
          <mxGeometry width="50" height="50" relative="1" as="geometry">
            <mxPoint x="120" y="40" as="sourcePoint" />
            <mxPoint x="490" y="40" as="targetPoint" />
          </mxGeometry>
        </mxCell>
        <mxCell id="8ZE7OZUxNNbx8h2_Nqw3-29" value="Kalender-Webanwendung" style="text;html=1;align=center;verticalAlign=middle;whiteSpace=wrap;rounded=0;fillColor=#ffcd28;gradientColor=#ffa500;strokeColor=#d79b00;fontColor=#010101;" parent="1" vertex="1">
          <mxGeometry x="120" y="-10" width="180" height="50" as="geometry" />
        </mxCell>
        <mxCell id="8ZE7OZUxNNbx8h2_Nqw3-30" value="Termin Anzeigen" style="ellipse;whiteSpace=wrap;html=1;align=center;strokeWidth=1;fontSize=10;" parent="1" vertex="1">
          <mxGeometry x="287" y="350" width="85" height="50" as="geometry" />
        </mxCell>
        <mxCell id="8ZE7OZUxNNbx8h2_Nqw3-34" value="" style="endArrow=block;html=1;rounded=0;exitX=1;exitY=0.3333333333333333;exitDx=0;exitDy=0;exitPerimeter=0;endFill=1;" parent="1" source="8ZE7OZUxNNbx8h2_Nqw3-21" target="8ZE7OZUxNNbx8h2_Nqw3-15" edge="1">
          <mxGeometry width="50" height="50" relative="1" as="geometry">
            <mxPoint x="480" y="260" as="sourcePoint" />
            <mxPoint x="530" y="210" as="targetPoint" />
          </mxGeometry>
        </mxCell>
        <mxCell id="8ZE7OZUxNNbx8h2_Nqw3-35" value="" style="endArrow=block;html=1;rounded=0;entryX=0;entryY=0.5;entryDx=0;entryDy=0;exitX=1;exitY=0.3333333333333333;exitDx=0;exitDy=0;exitPerimeter=0;startArrow=none;startFill=0;endFill=1;" parent="1" source="8ZE7OZUxNNbx8h2_Nqw3-21" target="8ZE7OZUxNNbx8h2_Nqw3-10" edge="1">
          <mxGeometry width="50" height="50" relative="1" as="geometry">
            <mxPoint x="70" y="270" as="sourcePoint" />
            <mxPoint x="530" y="210" as="targetPoint" />
            <Array as="points" />
          </mxGeometry>
        </mxCell>
        <mxCell id="8ZE7OZUxNNbx8h2_Nqw3-36" value="" style="endArrow=block;html=1;rounded=0;entryX=0;entryY=0.5;entryDx=0;entryDy=0;exitX=1;exitY=0.3333333333333333;exitDx=0;exitDy=0;exitPerimeter=0;startArrow=none;startFill=0;endFill=1;" parent="1" source="8ZE7OZUxNNbx8h2_Nqw3-21" target="8ZE7OZUxNNbx8h2_Nqw3-12" edge="1">
          <mxGeometry width="50" height="50" relative="1" as="geometry">
            <mxPoint x="260" y="80" as="sourcePoint" />
            <mxPoint x="530" y="210" as="targetPoint" />
          </mxGeometry>
        </mxCell>
        <mxCell id="8ZE7OZUxNNbx8h2_Nqw3-37" value="" style="endArrow=block;html=1;rounded=0;exitX=1;exitY=0.3333333333333333;exitDx=0;exitDy=0;entryX=0;entryY=0.5;entryDx=0;entryDy=0;exitPerimeter=0;startArrow=none;startFill=0;endFill=1;" parent="1" source="8ZE7OZUxNNbx8h2_Nqw3-21" target="8ZE7OZUxNNbx8h2_Nqw3-16" edge="1">
          <mxGeometry width="50" height="50" relative="1" as="geometry">
            <mxPoint x="90" y="270" as="sourcePoint" />
            <mxPoint x="530" y="210" as="targetPoint" />
          </mxGeometry>
        </mxCell>
        <mxCell id="8ZE7OZUxNNbx8h2_Nqw3-40" value="" style="endArrow=block;html=1;rounded=0;exitX=1;exitY=1;exitDx=0;exitDy=0;exitPerimeter=0;entryX=0;entryY=0.5;entryDx=0;entryDy=0;startArrow=none;startFill=0;endFill=1;" parent="1" source="8ZE7OZUxNNbx8h2_Nqw3-21" target="8ZE7OZUxNNbx8h2_Nqw3-13" edge="1">
          <mxGeometry width="50" height="50" relative="1" as="geometry">
            <mxPoint x="480" y="260" as="sourcePoint" />
            <mxPoint x="530" y="210" as="targetPoint" />
          </mxGeometry>
        </mxCell>
        <mxCell id="8ZE7OZUxNNbx8h2_Nqw3-48" value="" style="endArrow=block;html=1;rounded=0;entryX=0;entryY=0.5;entryDx=0;entryDy=0;startArrow=none;startFill=0;endFill=1;" parent="1" target="8ZE7OZUxNNbx8h2_Nqw3-18" edge="1">
          <mxGeometry width="50" height="50" relative="1" as="geometry">
            <mxPoint x="70" y="310" as="sourcePoint" />
            <mxPoint x="530" y="210" as="targetPoint" />
          </mxGeometry>
        </mxCell>
        <mxCell id="8ZE7OZUxNNbx8h2_Nqw3-65" value="" style="endArrow=block;html=1;rounded=0;exitX=1;exitY=0.3333333333333333;exitDx=0;exitDy=0;exitPerimeter=0;entryX=0;entryY=0.5;entryDx=0;entryDy=0;startArrow=none;startFill=0;endFill=1;" parent="1" source="8ZE7OZUxNNbx8h2_Nqw3-21" target="8ZE7OZUxNNbx8h2_Nqw3-17" edge="1">
          <mxGeometry width="50" height="50" relative="1" as="geometry">
            <mxPoint x="420" y="310" as="sourcePoint" />
            <mxPoint x="470" y="260" as="targetPoint" />
          </mxGeometry>
        </mxCell>
        <mxCell id="8ZE7OZUxNNbx8h2_Nqw3-66" value="" style="endArrow=block;html=1;rounded=0;entryX=0;entryY=0.5;entryDx=0;entryDy=0;startArrow=none;startFill=0;endFill=1;" parent="1" target="8ZE7OZUxNNbx8h2_Nqw3-14" edge="1">
          <mxGeometry width="50" height="50" relative="1" as="geometry">
            <mxPoint x="70" y="270" as="sourcePoint" />
            <mxPoint x="297" y="270" as="targetPoint" />
          </mxGeometry>
        </mxCell>
        <mxCell id="8ZE7OZUxNNbx8h2_Nqw3-67" value="" style="endArrow=block;html=1;rounded=0;entryX=0;entryY=0.5;entryDx=0;entryDy=0;startArrow=none;startFill=0;endFill=1;" parent="1" target="8ZE7OZUxNNbx8h2_Nqw3-30" edge="1">
          <mxGeometry width="50" height="50" relative="1" as="geometry">
            <mxPoint x="70" y="270" as="sourcePoint" />
            <mxPoint x="297" y="325" as="targetPoint" />
          </mxGeometry>
        </mxCell>
        <mxCell id="8ZE7OZUxNNbx8h2_Nqw3-68" value="Anwendungsfalldiagramm" style="text;html=1;align=center;verticalAlign=middle;whiteSpace=wrap;rounded=0;fillColor=#d5e8d4;strokeColor=light-dark(#82b366, #000000);fontColor=#000000;" parent="1" vertex="1">
          <mxGeometry y="-60" width="560" height="30" as="geometry" />
        </mxCell>
        <mxCell id="8ZE7OZUxNNbx8h2_Nqw3-69" value="" style="endArrow=none;html=1;rounded=0;" parent="1" edge="1">
          <mxGeometry width="50" height="50" relative="1" as="geometry">
            <mxPoint x="560" y="570" as="sourcePoint" />
            <mxPoint x="560" y="-60" as="targetPoint" />
          </mxGeometry>
        </mxCell>
        <mxCell id="8ZE7OZUxNNbx8h2_Nqw3-70" value="Entity Relation" style="text;html=1;align=center;verticalAlign=middle;whiteSpace=wrap;rounded=0;fillColor=#008a00;strokeColor=#005700;fontColor=light-dark(#ffffff, #0d0d0d);" parent="1" vertex="1">
          <mxGeometry x="560" y="-60" width="420" height="30" as="geometry" />
        </mxCell>
        <mxCell id="8ZE7OZUxNNbx8h2_Nqw3-71" value="" style="endArrow=none;html=1;rounded=0;" parent="1" edge="1">
          <mxGeometry width="50" height="50" relative="1" as="geometry">
            <mxPoint x="980" y="-30" as="sourcePoint" />
            <mxPoint y="-30" as="targetPoint" />
          </mxGeometry>
        </mxCell>
        <mxCell id="2stZwwe74YPtG8-czGNe-43" style="edgeStyle=none;shape=connector;rounded=0;orthogonalLoop=1;jettySize=auto;html=1;entryX=0.5;entryY=0;entryDx=0;entryDy=0;strokeColor=default;align=center;verticalAlign=middle;fontFamily=Helvetica;fontSize=11;fontColor=default;labelBackgroundColor=default;startFill=0;endArrow=none;" parent="1" source="2stZwwe74YPtG8-czGNe-23" target="2stZwwe74YPtG8-czGNe-26" edge="1">
          <mxGeometry relative="1" as="geometry" />
        </mxCell>
        <mxCell id="2stZwwe74YPtG8-czGNe-23" value="Ansicht" style="whiteSpace=wrap;html=1;align=center;" parent="1" vertex="1">
          <mxGeometry x="660" y="290" width="100" height="40" as="geometry" />
        </mxCell>
        <mxCell id="2stZwwe74YPtG8-czGNe-53" style="edgeStyle=none;shape=connector;rounded=0;orthogonalLoop=1;jettySize=auto;html=1;entryX=0.5;entryY=0;entryDx=0;entryDy=0;strokeColor=default;align=center;verticalAlign=middle;fontFamily=Helvetica;fontSize=11;fontColor=default;labelBackgroundColor=default;startFill=0;endArrow=none;" parent="1" source="2stZwwe74YPtG8-czGNe-24" target="2stZwwe74YPtG8-czGNe-51" edge="1">
          <mxGeometry relative="1" as="geometry" />
        </mxCell>
        <mxCell id="2stZwwe74YPtG8-czGNe-54" style="edgeStyle=none;shape=connector;rounded=0;orthogonalLoop=1;jettySize=auto;html=1;strokeColor=default;align=center;verticalAlign=middle;fontFamily=Helvetica;fontSize=11;fontColor=default;labelBackgroundColor=default;startFill=0;endArrow=none;entryX=0.5;entryY=0;entryDx=0;entryDy=0;" parent="1" source="2stZwwe74YPtG8-czGNe-24" target="2stZwwe74YPtG8-czGNe-112" edge="1">
          <mxGeometry relative="1" as="geometry">
            <mxPoint x="870" y="190" as="targetPoint" />
          </mxGeometry>
        </mxCell>
        <mxCell id="2stZwwe74YPtG8-czGNe-55" style="edgeStyle=none;shape=connector;rounded=0;orthogonalLoop=1;jettySize=auto;html=1;entryX=0.5;entryY=0;entryDx=0;entryDy=0;strokeColor=default;align=center;verticalAlign=middle;fontFamily=Helvetica;fontSize=11;fontColor=default;labelBackgroundColor=default;startFill=0;endArrow=none;" parent="1" source="2stZwwe74YPtG8-czGNe-24" target="2stZwwe74YPtG8-czGNe-52" edge="1">
          <mxGeometry relative="1" as="geometry" />
        </mxCell>
        <mxCell id="2stZwwe74YPtG8-czGNe-24" value="User" style="whiteSpace=wrap;html=1;align=center;" parent="1" vertex="1">
          <mxGeometry x="820" y="120" width="100" height="40" as="geometry" />
        </mxCell>
        <mxCell id="2stZwwe74YPtG8-czGNe-25" value="Monat" style="ellipse;whiteSpace=wrap;html=1;align=center;" parent="1" vertex="1">
          <mxGeometry x="660" y="390" width="100" height="40" as="geometry" />
        </mxCell>
        <mxCell id="2stZwwe74YPtG8-czGNe-26" value="Woche" style="ellipse;whiteSpace=wrap;html=1;align=center;" parent="1" vertex="1">
          <mxGeometry x="660" y="340" width="100" height="40" as="geometry" />
        </mxCell>
        <mxCell id="2stZwwe74YPtG8-czGNe-27" value="Tag" style="ellipse;whiteSpace=wrap;html=1;align=center;" parent="1" vertex="1">
          <mxGeometry x="660" y="440" width="100" height="40" as="geometry" />
        </mxCell>
        <mxCell id="2stZwwe74YPtG8-czGNe-69" style="edgeStyle=none;shape=connector;rounded=0;orthogonalLoop=1;jettySize=auto;html=1;entryX=0;entryY=0.5;entryDx=0;entryDy=0;strokeColor=default;align=center;verticalAlign=middle;fontFamily=Helvetica;fontSize=11;fontColor=default;labelBackgroundColor=default;startFill=0;endArrow=none;" parent="1" source="2stZwwe74YPtG8-czGNe-28" target="2stZwwe74YPtG8-czGNe-68" edge="1">
          <mxGeometry relative="1" as="geometry" />
        </mxCell>
        <mxCell id="2stZwwe74YPtG8-czGNe-28" value="Termin" style="whiteSpace=wrap;html=1;align=center;" parent="1" vertex="1">
          <mxGeometry x="810" y="290" width="100" height="40" as="geometry" />
        </mxCell>
        <mxCell id="2stZwwe74YPtG8-czGNe-47" value="Erinnerung" style="whiteSpace=wrap;html=1;align=center;" parent="1" vertex="1">
          <mxGeometry x="1000" y="290" width="100" height="40" as="geometry" />
        </mxCell>
        <mxCell id="2stZwwe74YPtG8-czGNe-63" style="edgeStyle=none;shape=connector;rounded=0;orthogonalLoop=1;jettySize=auto;html=1;entryX=0.5;entryY=0;entryDx=0;entryDy=0;strokeColor=default;align=center;verticalAlign=middle;fontFamily=Helvetica;fontSize=11;fontColor=default;labelBackgroundColor=default;startFill=0;endArrow=none;exitX=0.147;exitY=-0.06;exitDx=0;exitDy=0;exitPerimeter=0;" parent="1" source="2stZwwe74YPtG8-czGNe-64" target="2stZwwe74YPtG8-czGNe-28" edge="1">
          <mxGeometry relative="1" as="geometry">
            <mxPoint x="868" y="234" as="sourcePoint" />
          </mxGeometry>
        </mxCell>
        <mxCell id="2stZwwe74YPtG8-czGNe-56" style="edgeStyle=none;shape=connector;rounded=0;orthogonalLoop=1;jettySize=auto;html=1;entryX=0.5;entryY=0;entryDx=0;entryDy=0;strokeColor=default;align=center;verticalAlign=middle;fontFamily=Helvetica;fontSize=11;fontColor=default;labelBackgroundColor=default;startFill=0;endArrow=none;exitX=0.5;exitY=1;exitDx=0;exitDy=0;" parent="1" source="2stZwwe74YPtG8-czGNe-51" target="2stZwwe74YPtG8-czGNe-23" edge="1">
          <mxGeometry relative="1" as="geometry">
            <mxPoint x="710" y="240" as="sourcePoint" />
          </mxGeometry>
        </mxCell>
        <mxCell id="2stZwwe74YPtG8-czGNe-51" value="wählt" style="shape=rhombus;perimeter=rhombusPerimeter;whiteSpace=wrap;html=1;align=center;" parent="1" vertex="1">
          <mxGeometry x="680" y="210" width="60" height="25" as="geometry" />
        </mxCell>
        <mxCell id="2stZwwe74YPtG8-czGNe-65" style="edgeStyle=none;shape=connector;rounded=0;orthogonalLoop=1;jettySize=auto;html=1;entryX=0.5;entryY=0;entryDx=0;entryDy=0;strokeColor=default;align=center;verticalAlign=middle;fontFamily=Helvetica;fontSize=11;fontColor=default;labelBackgroundColor=default;startFill=0;endArrow=none;" parent="1" source="2stZwwe74YPtG8-czGNe-52" target="2stZwwe74YPtG8-czGNe-47" edge="1">
          <mxGeometry relative="1" as="geometry" />
        </mxCell>
        <mxCell id="2stZwwe74YPtG8-czGNe-52" value="erstellt" style="shape=rhombus;perimeter=rhombusPerimeter;whiteSpace=wrap;html=1;align=center;" parent="1" vertex="1">
          <mxGeometry x="980" y="210" width="60" height="25" as="geometry" />
        </mxCell>
        <mxCell id="2stZwwe74YPtG8-czGNe-58" value="1" style="text;html=1;align=center;verticalAlign=middle;resizable=0;points=[];autosize=1;strokeColor=none;fillColor=none;fontFamily=Helvetica;fontSize=11;fontColor=default;labelBackgroundColor=default;" parent="1" vertex="1">
          <mxGeometry x="860" y="158" width="30" height="30" as="geometry" />
        </mxCell>
        <mxCell id="2stZwwe74YPtG8-czGNe-59" value="1" style="text;html=1;align=center;verticalAlign=middle;resizable=0;points=[];autosize=1;strokeColor=none;fillColor=none;fontFamily=Helvetica;fontSize=11;fontColor=default;labelBackgroundColor=default;" parent="1" vertex="1">
          <mxGeometry x="915" y="138" width="30" height="30" as="geometry" />
        </mxCell>
        <mxCell id="2stZwwe74YPtG8-czGNe-62" value="3" style="text;html=1;align=center;verticalAlign=middle;resizable=0;points=[];autosize=1;strokeColor=none;fillColor=none;fontFamily=Helvetica;fontSize=11;fontColor=default;labelBackgroundColor=default;" parent="1" vertex="1">
          <mxGeometry x="680" y="260" width="30" height="30" as="geometry" />
        </mxCell>
        <mxCell id="2stZwwe74YPtG8-czGNe-64" value="n" style="text;html=1;align=center;verticalAlign=middle;resizable=0;points=[];autosize=1;strokeColor=none;fillColor=none;fontFamily=Helvetica;fontSize=11;fontColor=default;labelBackgroundColor=default;" parent="1" vertex="1">
          <mxGeometry x="860" y="260" width="30" height="30" as="geometry" />
        </mxCell>
        <mxCell id="2stZwwe74YPtG8-czGNe-66" value="n" style="text;html=1;align=center;verticalAlign=middle;resizable=0;points=[];autosize=1;strokeColor=none;fillColor=none;fontFamily=Helvetica;fontSize=11;fontColor=default;labelBackgroundColor=default;" parent="1" vertex="1">
          <mxGeometry x="1037" y="260" width="30" height="30" as="geometry" />
        </mxCell>
        <mxCell id="2stZwwe74YPtG8-czGNe-70" style="edgeStyle=none;shape=connector;rounded=0;orthogonalLoop=1;jettySize=auto;html=1;strokeColor=default;align=center;verticalAlign=middle;fontFamily=Helvetica;fontSize=11;fontColor=default;labelBackgroundColor=default;startFill=0;endArrow=none;" parent="1" source="2stZwwe74YPtG8-czGNe-68" target="2stZwwe74YPtG8-czGNe-47" edge="1">
          <mxGeometry relative="1" as="geometry" />
        </mxCell>
        <mxCell id="2stZwwe74YPtG8-czGNe-68" value="hat" style="shape=rhombus;perimeter=rhombusPerimeter;whiteSpace=wrap;html=1;align=center;" parent="1" vertex="1">
          <mxGeometry x="940" y="298.75" width="40" height="22.5" as="geometry" />
        </mxCell>
        <mxCell id="2stZwwe74YPtG8-czGNe-71" value="1" style="text;html=1;align=center;verticalAlign=middle;resizable=0;points=[];autosize=1;strokeColor=none;fillColor=none;fontFamily=Helvetica;fontSize=11;fontColor=default;labelBackgroundColor=default;" parent="1" vertex="1">
          <mxGeometry x="905" y="310" width="30" height="30" as="geometry" />
        </mxCell>
        <mxCell id="2stZwwe74YPtG8-czGNe-72" value="n" style="text;html=1;align=center;verticalAlign=middle;resizable=0;points=[];autosize=1;strokeColor=none;fillColor=none;fontFamily=Helvetica;fontSize=11;fontColor=default;labelBackgroundColor=default;" parent="1" vertex="1">
          <mxGeometry x="970" y="280" width="30" height="30" as="geometry" />
        </mxCell>
        <mxCell id="2stZwwe74YPtG8-czGNe-88" value="Titel" style="ellipse;whiteSpace=wrap;html=1;align=center;" parent="1" vertex="1">
          <mxGeometry x="810" y="380" width="100" height="30" as="geometry" />
        </mxCell>
        <mxCell id="2stZwwe74YPtG8-czGNe-90" value="Beschreibung" style="ellipse;whiteSpace=wrap;html=1;align=center;" parent="1" vertex="1">
          <mxGeometry x="810" y="420" width="100" height="30" as="geometry" />
        </mxCell>
        <mxCell id="2stZwwe74YPtG8-czGNe-91" value="Startzeit" style="ellipse;whiteSpace=wrap;html=1;align=center;" parent="1" vertex="1">
          <mxGeometry x="810" y="455" width="100" height="35" as="geometry" />
        </mxCell>
        <mxCell id="2stZwwe74YPtG8-czGNe-92" value="Datum" style="ellipse;whiteSpace=wrap;html=1;align=center;" parent="1" vertex="1">
          <mxGeometry x="810" y="580" width="100" height="30" as="geometry" />
        </mxCell>
        <mxCell id="2stZwwe74YPtG8-czGNe-93" value="Endzeit" style="ellipse;whiteSpace=wrap;html=1;align=center;" parent="1" vertex="1">
          <mxGeometry x="810" y="500" width="100" height="30" as="geometry" />
        </mxCell>
        <mxCell id="2stZwwe74YPtG8-czGNe-95" value="Wiederholung" style="ellipse;whiteSpace=wrap;html=1;align=center;" parent="1" vertex="1">
          <mxGeometry x="810" y="620" width="100" height="30" as="geometry" />
        </mxCell>
        <mxCell id="2stZwwe74YPtG8-czGNe-98" value="erstellt am" style="ellipse;whiteSpace=wrap;html=1;align=center;" parent="1" vertex="1">
          <mxGeometry x="810" y="540" width="100" height="30" as="geometry" />
        </mxCell>
        <mxCell id="2stZwwe74YPtG8-czGNe-103" value="Uhrzeit" style="ellipse;whiteSpace=wrap;html=1;align=center;" parent="1" vertex="1">
          <mxGeometry x="1000" y="340" width="100" height="30" as="geometry" />
        </mxCell>
        <mxCell id="2stZwwe74YPtG8-czGNe-104" value="Beschreibung" style="ellipse;whiteSpace=wrap;html=1;align=center;" parent="1" vertex="1">
          <mxGeometry x="1000" y="460" width="100" height="30" as="geometry" />
        </mxCell>
        <mxCell id="2stZwwe74YPtG8-czGNe-109" value="1" style="text;html=1;align=center;verticalAlign=middle;resizable=0;points=[];autosize=1;strokeColor=none;fillColor=none;fontFamily=Helvetica;fontSize=11;fontColor=default;labelBackgroundColor=default;" parent="1" vertex="1">
          <mxGeometry x="785" y="138" width="30" height="30" as="geometry" />
        </mxCell>
        <mxCell id="2stZwwe74YPtG8-czGNe-111" value="&lt;font style=&quot;font-size: 8px;&quot;&gt;hinzufügen&lt;/font&gt;" style="shape=rhombus;perimeter=rhombusPerimeter;whiteSpace=wrap;html=1;align=center;" parent="1" vertex="1">
          <mxGeometry x="835" y="215.5" width="70" height="37.5" as="geometry" />
        </mxCell>
        <mxCell id="2stZwwe74YPtG8-czGNe-112" value="&lt;font style=&quot;font-size: 10px;&quot;&gt;anzeigen&lt;/font&gt;" style="shape=rhombus;perimeter=rhombusPerimeter;whiteSpace=wrap;html=1;align=center;" parent="1" vertex="1">
          <mxGeometry x="825" y="188" width="70" height="32" as="geometry" />
        </mxCell>
        <mxCell id="2stZwwe74YPtG8-czGNe-113" value="bearbeitet" style="shape=rhombus;perimeter=rhombusPerimeter;whiteSpace=wrap;html=1;align=center;fontSize=10;" parent="1" vertex="1">
          <mxGeometry x="795" y="233" width="80" height="40" as="geometry" />
        </mxCell>
        <mxCell id="2stZwwe74YPtG8-czGNe-114" value="erstellt" style="shape=rhombus;perimeter=rhombusPerimeter;whiteSpace=wrap;html=1;align=center;fontSize=10;" parent="1" vertex="1">
          <mxGeometry x="795" y="204.25" width="67" height="32.5" as="geometry" />
        </mxCell>
        <mxCell id="2stZwwe74YPtG8-czGNe-115" value="löscht" style="shape=rhombus;perimeter=rhombusPerimeter;whiteSpace=wrap;html=1;align=center;fontSize=10;" parent="1" vertex="1">
          <mxGeometry x="765" y="223" width="60" height="30" as="geometry" />
        </mxCell>
        <mxCell id="2stZwwe74YPtG8-czGNe-117" value="User" style="swimlane;childLayout=stackLayout;horizontal=1;startSize=50;horizontalStack=0;rounded=1;fontSize=14;fontStyle=0;strokeWidth=2;resizeParent=0;resizeLast=1;shadow=0;dashed=0;align=center;arcSize=4;whiteSpace=wrap;html=1;fontFamily=Helvetica;fontColor=default;labelBackgroundColor=default;" parent="1" vertex="1">
          <mxGeometry x="1120" y="40" width="160" height="120" as="geometry" />
        </mxCell>
        <mxCell id="2stZwwe74YPtG8-czGNe-120" value="Erinnerung" style="swimlane;childLayout=stackLayout;horizontal=1;startSize=50;horizontalStack=0;rounded=1;fontSize=14;fontStyle=0;strokeWidth=2;resizeParent=0;resizeLast=1;shadow=0;dashed=0;align=center;arcSize=4;whiteSpace=wrap;html=1;fontFamily=Helvetica;fontColor=default;labelBackgroundColor=default;" parent="1" vertex="1">
          <mxGeometry x="982.5" y="710" width="160" height="120" as="geometry" />
        </mxCell>
        <mxCell id="2stZwwe74YPtG8-czGNe-121" value="+ Uhrzeit&lt;div&gt;+ Datum&lt;br&gt;+ Termin-ID&lt;br&gt;+ Beschreibung&lt;/div&gt;" style="align=left;strokeColor=none;fillColor=none;spacingLeft=4;fontSize=12;verticalAlign=top;resizable=0;rotatable=0;part=1;html=1;fontFamily=Helvetica;fontColor=default;labelBackgroundColor=default;" parent="2stZwwe74YPtG8-czGNe-120" vertex="1">
          <mxGeometry y="50" width="160" height="70" as="geometry" />
        </mxCell>
        <mxCell id="2stZwwe74YPtG8-czGNe-122" value="Termin" style="swimlane;childLayout=stackLayout;horizontal=1;startSize=50;horizontalStack=0;rounded=1;fontSize=14;fontStyle=0;strokeWidth=2;resizeParent=0;resizeLast=1;shadow=0;dashed=0;align=center;arcSize=4;whiteSpace=wrap;html=1;fontFamily=Helvetica;fontColor=default;labelBackgroundColor=default;" parent="1" vertex="1">
          <mxGeometry x="797.5" y="710" width="160" height="190" as="geometry" />
        </mxCell>
        <mxCell id="2stZwwe74YPtG8-czGNe-123" value="+ Termin-ID&lt;div&gt;+ Titel&lt;/div&gt;&lt;div&gt;+ Beschreibung&lt;/div&gt;&lt;div&gt;+ Startzeit&lt;/div&gt;&lt;div&gt;+ Endzeit&lt;/div&gt;&lt;div&gt;+ erstellt am&lt;/div&gt;&lt;div&gt;+ Datum&lt;br&gt;+ Wiederholung&lt;/div&gt;" style="align=left;strokeColor=none;fillColor=none;spacingLeft=4;fontSize=12;verticalAlign=top;resizable=0;rotatable=0;part=1;html=1;fontFamily=Helvetica;fontColor=default;labelBackgroundColor=default;" parent="2stZwwe74YPtG8-czGNe-122" vertex="1">
          <mxGeometry y="50" width="160" height="140" as="geometry" />
        </mxCell>
        <mxCell id="2stZwwe74YPtG8-czGNe-124" value="Ansicht" style="swimlane;childLayout=stackLayout;horizontal=1;startSize=50;horizontalStack=0;rounded=1;fontSize=14;fontStyle=0;strokeWidth=2;resizeParent=0;resizeLast=1;shadow=0;dashed=0;align=center;arcSize=4;whiteSpace=wrap;html=1;fontFamily=Helvetica;fontColor=default;labelBackgroundColor=default;" parent="1" vertex="1">
          <mxGeometry x="617.5" y="710" width="160" height="120" as="geometry" />
        </mxCell>
        <mxCell id="2stZwwe74YPtG8-czGNe-125" value="+ Woche&lt;div&gt;+ Monat&lt;/div&gt;&lt;div&gt;+ Tag&lt;/div&gt;" style="align=left;strokeColor=none;fillColor=none;spacingLeft=4;fontSize=12;verticalAlign=top;resizable=0;rotatable=0;part=1;html=1;fontFamily=Helvetica;fontColor=default;labelBackgroundColor=default;" parent="2stZwwe74YPtG8-czGNe-124" vertex="1">
          <mxGeometry y="50" width="160" height="70" as="geometry" />
        </mxCell>
        <mxCell id="2stZwwe74YPtG8-czGNe-126" value="Adresse" style="whiteSpace=wrap;html=1;align=center;fillColor=#60a917;fontColor=#ffffff;strokeColor=#2D7600;" parent="1" vertex="1">
          <mxGeometry x="1250" y="288" width="100" height="40" as="geometry" />
        </mxCell>
        <mxCell id="2stZwwe74YPtG8-czGNe-127" value="ort" style="ellipse;whiteSpace=wrap;html=1;align=center;" parent="1" vertex="1">
          <mxGeometry x="1250" y="340" width="100" height="40" as="geometry" />
        </mxCell>
        <mxCell id="2stZwwe74YPtG8-czGNe-128" value="plz" style="ellipse;whiteSpace=wrap;html=1;align=center;" parent="1" vertex="1">
          <mxGeometry x="1250" y="390" width="100" height="40" as="geometry" />
        </mxCell>
        <mxCell id="2stZwwe74YPtG8-czGNe-129" value="BüroNr" style="ellipse;whiteSpace=wrap;html=1;align=center;" parent="1" vertex="1">
          <mxGeometry x="1250" y="490" width="100" height="40" as="geometry" />
        </mxCell>
        <mxCell id="2stZwwe74YPtG8-czGNe-130" value="strasseHausNR" style="ellipse;whiteSpace=wrap;html=1;align=center;" parent="1" vertex="1">
          <mxGeometry x="1250" y="440" width="100" height="40" as="geometry" />
        </mxCell>
        <mxCell id="2stZwwe74YPtG8-czGNe-131" value="Adresse" style="swimlane;childLayout=stackLayout;horizontal=1;startSize=50;horizontalStack=0;rounded=1;fontSize=14;fontStyle=0;strokeWidth=2;resizeParent=0;resizeLast=1;shadow=0;dashed=0;align=center;arcSize=4;whiteSpace=wrap;html=1;fontFamily=Helvetica;fontColor=default;labelBackgroundColor=default;" parent="1" vertex="1">
          <mxGeometry x="1192.5" y="710" width="160" height="120" as="geometry" />
        </mxCell>
        <mxCell id="2stZwwe74YPtG8-czGNe-132" value="+ plz&lt;div&gt;+ strasseHausNr&lt;/div&gt;&lt;div&gt;+ ort&lt;/div&gt;&lt;div&gt;+ BüroNr&lt;/div&gt;" style="align=left;strokeColor=none;fillColor=none;spacingLeft=4;fontSize=12;verticalAlign=top;resizable=0;rotatable=0;part=1;html=1;fontFamily=Helvetica;fontColor=default;labelBackgroundColor=default;" parent="2stZwwe74YPtG8-czGNe-131" vertex="1">
          <mxGeometry y="50" width="160" height="70" as="geometry" />
        </mxCell>
        <mxCell id="2stZwwe74YPtG8-czGNe-133" value="Datum" style="ellipse;whiteSpace=wrap;html=1;align=center;" parent="1" vertex="1">
          <mxGeometry x="1000" y="380" width="100" height="30" as="geometry" />
        </mxCell>
        <mxCell id="2stZwwe74YPtG8-czGNe-100" value="Termin-ID" style="ellipse;whiteSpace=wrap;html=1;align=center;" parent="1" vertex="1">
          <mxGeometry x="1000" y="420" width="100" height="30" as="geometry" />
        </mxCell>
        <mxCell id="2stZwwe74YPtG8-czGNe-137" value="Termin-ID" style="ellipse;whiteSpace=wrap;html=1;align=center;fontStyle=4;fontFamily=Helvetica;fontSize=11;fontColor=default;labelBackgroundColor=default;" parent="1" vertex="1">
          <mxGeometry x="810" y="340" width="100" height="30" as="geometry" />
        </mxCell>
        <mxCell id="nZ00j9gCjk5hwodckZbw-3" value="" style="endArrow=none;html=1;rounded=0;entryX=0.5;entryY=0;entryDx=0;entryDy=0;exitX=1;exitY=0;exitDx=0;exitDy=0;fillColor=#60a917;strokeColor=#2D7600;" edge="1" parent="1" source="2stZwwe74YPtG8-czGNe-28" target="2stZwwe74YPtG8-czGNe-126">
          <mxGeometry width="50" height="50" relative="1" as="geometry">
            <mxPoint x="1060" y="430" as="sourcePoint" />
            <mxPoint x="1110" y="380" as="targetPoint" />
            <Array as="points">
              <mxPoint x="910" y="260" />
              <mxPoint x="1300" y="260" />
            </Array>
          </mxGeometry>
        </mxCell>
        <mxCell id="nZ00j9gCjk5hwodckZbw-4" value="" style="endArrow=none;html=1;rounded=0;exitX=0.5;exitY=1;exitDx=0;exitDy=0;entryX=0.5;entryY=0;entryDx=0;entryDy=0;" edge="1" parent="1" source="2stZwwe74YPtG8-czGNe-126" target="2stZwwe74YPtG8-czGNe-127">
          <mxGeometry width="50" height="50" relative="1" as="geometry">
            <mxPoint x="1070" y="470" as="sourcePoint" />
            <mxPoint x="1120" y="420" as="targetPoint" />
          </mxGeometry>
        </mxCell>
        <mxCell id="nZ00j9gCjk5hwodckZbw-5" value="" style="endArrow=none;html=1;rounded=0;exitX=0.5;exitY=1;exitDx=0;exitDy=0;entryX=0.5;entryY=0;entryDx=0;entryDy=0;" edge="1" parent="1" source="2stZwwe74YPtG8-czGNe-127" target="2stZwwe74YPtG8-czGNe-128">
          <mxGeometry width="50" height="50" relative="1" as="geometry">
            <mxPoint x="1070" y="470" as="sourcePoint" />
            <mxPoint x="1120" y="420" as="targetPoint" />
          </mxGeometry>
        </mxCell>
        <mxCell id="nZ00j9gCjk5hwodckZbw-6" value="" style="endArrow=none;html=1;rounded=0;entryX=0.5;entryY=1;entryDx=0;entryDy=0;exitX=0.5;exitY=0;exitDx=0;exitDy=0;" edge="1" parent="1" source="2stZwwe74YPtG8-czGNe-130" target="2stZwwe74YPtG8-czGNe-128">
          <mxGeometry width="50" height="50" relative="1" as="geometry">
            <mxPoint x="1070" y="470" as="sourcePoint" />
            <mxPoint x="1120" y="420" as="targetPoint" />
          </mxGeometry>
        </mxCell>
        <mxCell id="nZ00j9gCjk5hwodckZbw-7" value="" style="endArrow=none;html=1;rounded=0;entryX=0.5;entryY=1;entryDx=0;entryDy=0;exitX=0.5;exitY=0;exitDx=0;exitDy=0;" edge="1" parent="1" source="2stZwwe74YPtG8-czGNe-129" target="2stZwwe74YPtG8-czGNe-130">
          <mxGeometry width="50" height="50" relative="1" as="geometry">
            <mxPoint x="1070" y="470" as="sourcePoint" />
            <mxPoint x="1120" y="420" as="targetPoint" />
          </mxGeometry>
        </mxCell>
        <mxCell id="nZ00j9gCjk5hwodckZbw-9" value="" style="endArrow=none;html=1;rounded=0;entryX=0.5;entryY=1;entryDx=0;entryDy=0;exitX=0.5;exitY=0;exitDx=0;exitDy=0;" edge="1" parent="1" source="2stZwwe74YPtG8-czGNe-103" target="2stZwwe74YPtG8-czGNe-47">
          <mxGeometry width="50" height="50" relative="1" as="geometry">
            <mxPoint x="960" y="530" as="sourcePoint" />
            <mxPoint x="1010" y="480" as="targetPoint" />
          </mxGeometry>
        </mxCell>
        <mxCell id="nZ00j9gCjk5hwodckZbw-12" value="" style="endArrow=none;html=1;rounded=0;entryX=0.5;entryY=1;entryDx=0;entryDy=0;exitX=0.5;exitY=0;exitDx=0;exitDy=0;" edge="1" parent="1" source="2stZwwe74YPtG8-czGNe-104" target="2stZwwe74YPtG8-czGNe-100">
          <mxGeometry width="50" height="50" relative="1" as="geometry">
            <mxPoint x="970" y="540" as="sourcePoint" />
            <mxPoint x="1020" y="490" as="targetPoint" />
          </mxGeometry>
        </mxCell>
        <mxCell id="nZ00j9gCjk5hwodckZbw-13" value="" style="endArrow=none;html=1;rounded=0;entryX=0.5;entryY=1;entryDx=0;entryDy=0;exitX=0.5;exitY=0;exitDx=0;exitDy=0;" edge="1" parent="1" source="2stZwwe74YPtG8-czGNe-100" target="2stZwwe74YPtG8-czGNe-133">
          <mxGeometry width="50" height="50" relative="1" as="geometry">
            <mxPoint x="980" y="550" as="sourcePoint" />
            <mxPoint x="1030" y="500" as="targetPoint" />
          </mxGeometry>
        </mxCell>
        <mxCell id="nZ00j9gCjk5hwodckZbw-14" value="" style="endArrow=none;html=1;rounded=0;entryX=0.5;entryY=1;entryDx=0;entryDy=0;exitX=0.5;exitY=0;exitDx=0;exitDy=0;" edge="1" parent="1" source="2stZwwe74YPtG8-czGNe-133" target="2stZwwe74YPtG8-czGNe-103">
          <mxGeometry width="50" height="50" relative="1" as="geometry">
            <mxPoint x="990" y="560" as="sourcePoint" />
            <mxPoint x="1040" y="510" as="targetPoint" />
          </mxGeometry>
        </mxCell>
        <mxCell id="nZ00j9gCjk5hwodckZbw-15" value="" style="endArrow=none;html=1;rounded=0;entryX=0.5;entryY=1;entryDx=0;entryDy=0;exitX=0.5;exitY=0;exitDx=0;exitDy=0;" edge="1" parent="1" source="2stZwwe74YPtG8-czGNe-137" target="2stZwwe74YPtG8-czGNe-28">
          <mxGeometry width="50" height="50" relative="1" as="geometry">
            <mxPoint x="900" y="560" as="sourcePoint" />
            <mxPoint x="950" y="510" as="targetPoint" />
          </mxGeometry>
        </mxCell>
        <mxCell id="nZ00j9gCjk5hwodckZbw-16" value="" style="endArrow=none;html=1;rounded=0;entryX=0.5;entryY=1;entryDx=0;entryDy=0;exitX=0.5;exitY=0;exitDx=0;exitDy=0;" edge="1" parent="1" source="2stZwwe74YPtG8-czGNe-88" target="2stZwwe74YPtG8-czGNe-137">
          <mxGeometry width="50" height="50" relative="1" as="geometry">
            <mxPoint x="910" y="570" as="sourcePoint" />
            <mxPoint x="960" y="520" as="targetPoint" />
          </mxGeometry>
        </mxCell>
        <mxCell id="nZ00j9gCjk5hwodckZbw-17" value="" style="endArrow=none;html=1;rounded=0;entryX=0.5;entryY=1;entryDx=0;entryDy=0;exitX=0.5;exitY=0;exitDx=0;exitDy=0;" edge="1" parent="1" source="2stZwwe74YPtG8-czGNe-90" target="2stZwwe74YPtG8-czGNe-88">
          <mxGeometry width="50" height="50" relative="1" as="geometry">
            <mxPoint x="920" y="580" as="sourcePoint" />
            <mxPoint x="970" y="530" as="targetPoint" />
          </mxGeometry>
        </mxCell>
        <mxCell id="nZ00j9gCjk5hwodckZbw-18" value="" style="endArrow=none;html=1;rounded=0;entryX=0.5;entryY=1;entryDx=0;entryDy=0;exitX=0.5;exitY=0;exitDx=0;exitDy=0;" edge="1" parent="1" source="2stZwwe74YPtG8-czGNe-91" target="2stZwwe74YPtG8-czGNe-90">
          <mxGeometry width="50" height="50" relative="1" as="geometry">
            <mxPoint x="930" y="590" as="sourcePoint" />
            <mxPoint x="980" y="540" as="targetPoint" />
          </mxGeometry>
        </mxCell>
        <mxCell id="nZ00j9gCjk5hwodckZbw-19" value="" style="endArrow=none;html=1;rounded=0;entryX=0.5;entryY=1;entryDx=0;entryDy=0;exitX=0.5;exitY=0;exitDx=0;exitDy=0;" edge="1" parent="1" source="2stZwwe74YPtG8-czGNe-93" target="2stZwwe74YPtG8-czGNe-91">
          <mxGeometry width="50" height="50" relative="1" as="geometry">
            <mxPoint x="940" y="600" as="sourcePoint" />
            <mxPoint x="990" y="550" as="targetPoint" />
          </mxGeometry>
        </mxCell>
        <mxCell id="nZ00j9gCjk5hwodckZbw-20" value="" style="endArrow=none;html=1;rounded=0;entryX=0.5;entryY=1;entryDx=0;entryDy=0;exitX=0.5;exitY=0;exitDx=0;exitDy=0;" edge="1" parent="1" source="2stZwwe74YPtG8-czGNe-98" target="2stZwwe74YPtG8-czGNe-93">
          <mxGeometry width="50" height="50" relative="1" as="geometry">
            <mxPoint x="950" y="610" as="sourcePoint" />
            <mxPoint x="1000" y="560" as="targetPoint" />
          </mxGeometry>
        </mxCell>
        <mxCell id="nZ00j9gCjk5hwodckZbw-21" value="" style="endArrow=none;html=1;rounded=0;entryX=0.5;entryY=1;entryDx=0;entryDy=0;" edge="1" parent="1" source="2stZwwe74YPtG8-czGNe-92" target="2stZwwe74YPtG8-czGNe-98">
          <mxGeometry width="50" height="50" relative="1" as="geometry">
            <mxPoint x="960" y="620" as="sourcePoint" />
            <mxPoint x="1010" y="570" as="targetPoint" />
          </mxGeometry>
        </mxCell>
        <mxCell id="nZ00j9gCjk5hwodckZbw-22" value="" style="endArrow=none;html=1;rounded=0;entryX=0.5;entryY=1;entryDx=0;entryDy=0;exitX=0.5;exitY=0;exitDx=0;exitDy=0;" edge="1" parent="1" source="2stZwwe74YPtG8-czGNe-95" target="2stZwwe74YPtG8-czGNe-92">
          <mxGeometry width="50" height="50" relative="1" as="geometry">
            <mxPoint x="900" y="560" as="sourcePoint" />
            <mxPoint x="950" y="510" as="targetPoint" />
          </mxGeometry>
        </mxCell>
        <mxCell id="nZ00j9gCjk5hwodckZbw-23" value="" style="endArrow=none;html=1;rounded=0;entryX=0.5;entryY=1;entryDx=0;entryDy=0;exitX=0.5;exitY=0;exitDx=0;exitDy=0;" edge="1" parent="1" source="2stZwwe74YPtG8-czGNe-25" target="2stZwwe74YPtG8-czGNe-26">
          <mxGeometry width="50" height="50" relative="1" as="geometry">
            <mxPoint x="880" y="410" as="sourcePoint" />
            <mxPoint x="930" y="360" as="targetPoint" />
          </mxGeometry>
        </mxCell>
        <mxCell id="nZ00j9gCjk5hwodckZbw-24" value="" style="endArrow=none;html=1;rounded=0;entryX=0.5;entryY=1;entryDx=0;entryDy=0;exitX=0.5;exitY=0;exitDx=0;exitDy=0;" edge="1" parent="1" source="2stZwwe74YPtG8-czGNe-27" target="2stZwwe74YPtG8-czGNe-25">
          <mxGeometry width="50" height="50" relative="1" as="geometry">
            <mxPoint x="880" y="410" as="sourcePoint" />
            <mxPoint x="930" y="360" as="targetPoint" />
          </mxGeometry>
        </mxCell>
        <mxCell id="nZ00j9gCjk5hwodckZbw-25" value="1" style="text;html=1;align=center;verticalAlign=middle;resizable=0;points=[];autosize=1;strokeColor=none;fillColor=none;fontFamily=Helvetica;fontSize=11;fontColor=default;labelBackgroundColor=default;" vertex="1" parent="1">
          <mxGeometry x="1300" y="258" width="30" height="30" as="geometry" />
        </mxCell>
        <mxCell id="nZ00j9gCjk5hwodckZbw-26" value="n" style="text;html=1;align=center;verticalAlign=middle;resizable=0;points=[];autosize=1;strokeColor=none;fillColor=none;fontFamily=Helvetica;fontSize=11;fontColor=default;labelBackgroundColor=default;" vertex="1" parent="1">
          <mxGeometry x="910" y="260" width="30" height="30" as="geometry" />
        </mxCell>
      </root>
    </mxGraphModel>
  </diagram>
</mxfile>
